<?xml version="1.0" encoding="utf-8" ?><svg xmlns="http://www.w3.org/2000/svg" xmlns:xlink="http://www.w3.org/1999/xlink" width="323" height="323" viewBox="0 0 323 323"><path transform="matrix(0.31543 0 0 0.31543 0 3.05176e-05)" d="M401.171 421.206C403.766 420.918 406.597 420.942 409.222 420.936C453.107 420.748 486.325 448.904 495.746 491.563C503.531 526.821 501.924 563.743 501.924 599.695L501.446 725.994L438.532 726.085L438.663 613.087C438.871 583.747 439.993 556.411 436.576 526.502C432.56 491.345 405.694 471.58 371.178 483.142C365.972 484.885 361.648 488.086 357.437 491.612C356.849 492.149 356.275 492.703 355.717 493.272C336.781 512.346 337.651 541.429 337.809 566.411L337.934 600.845L337.982 725.368C317.531 725.932 296.583 725.489 276.071 725.427L276.068 430.017C293.6 429.444 313.797 429.943 331.543 429.99C331.523 437.834 331.067 454.281 332.017 461.218C347.237 435.571 371.84 423.234 401.171 421.206Z"/><path transform="matrix(0.31543 0 0 0.31543 0 3.05176e-05)" d="M645.222 421.294C691.746 415.519 734.22 445.509 743.412 491.538C749.538 522.215 747.958 555.467 747.957 586.719C747.516 633.151 747.531 679.586 748.003 726.017L707.033 726.035C701.286 726.032 690.843 725.709 685.53 726.398C686.1 682.146 686.088 637.889 685.494 593.637C685.286 566.404 689.45 520.021 674.036 496.57C660.794 476.421 628.808 474.807 609.237 488.598C593.611 499.424 586.489 520.495 585.637 538.772C584.672 559.465 585.007 580.32 585.003 601.044L585.057 726.019L546.043 726.088C539.041 726.101 529.829 725.844 523.066 726.419L522.997 642.156L523.033 430.508C540.633 431.339 562.195 430.331 580.542 430.679C580.591 441.589 580.585 452.499 580.523 463.408C594.06 434.912 615.221 425.017 645.222 421.294Z"/><path transform="matrix(0.31543 0 0 0.31543 0 3.05176e-05)" d="M540.097 312.075C565.769 310.001 588.27 329.111 590.378 354.781C592.486 380.45 573.405 402.976 547.739 405.118C522.024 407.264 499.447 388.14 497.335 362.423C495.223 336.706 514.377 314.154 540.097 312.075Z"/></svg>